<svg xmlns="http://www.w3.org/2000/svg" viewBox="0 0 1200 260"><rect width="1200" height="260" rx="24" fill="#030712"/><text x="600" y="45" text-anchor="middle" fill="#fff" font-family="Arial" font-size="25" font-weight="700">AICP EXECUTION PIPELINE</text><g font-family="Arial" text-anchor="middle" font-size="15" font-weight="700" fill="#071a36" stroke="#6366f1" stroke-width="2"><rect x="30" y="90" width="120" height="62" rx="16"/><rect x="170" y="90" width="120" height="62" rx="16"/><rect x="310" y="90" width="120" height="62" rx="16"/><rect x="450" y="90" width="120" height="62" rx="16"/><rect x="590" y="90" width="120" height="62" rx="16"/><rect x="730" y="90" width="120" height="62" rx="16"/><rect x="870" y="90" width="120" height="62" rx="16"/><rect x="1010" y="90" width="160" height="62" rx="16"/></g><g font-family="Arial" text-anchor="middle" fill="#fff" font-size="15" font-weight="700"><text x="90" y="127">INTENT</text><text x="230" y="127">PLAN</text><text x="370" y="127">TASK</text><text x="510" y="127">WORKER</text><text x="650" y="127">TOOL</text><text x="790" y="127">RESULT</text><text x="930" y="127">EVIDENCE</text><text x="1090" y="127">VERIFY</text></g><text x="600" y="205" text-anchor="middle" fill="#a5b4fc" font-family="Arial" font-size="16">Scope · State · Evidence · Verification</text></svg>